<svg id="visual" viewBox="0 0 100 10" width="100" height="10" xmlns="http://www.w3.org/2000/svg" xmlns:xlink="http://www.w3.org/1999/xlink" version="1.1"><rect x="0" y="0" width="100" height="10" fill="#EDF2EB"></rect><path d="M0 2L1 2.2C2 2.3 4 2.7 5.8 3.2C7.7 3.7 9.3 4.3 11.2 4.5C13 4.7 15 4.3 16.8 4C18.7 3.7 20.3 3.3 22.2 3C24 2.7 26 2.3 27.8 2.5C29.7 2.7 31.3 3.3 33.2 3.3C35 3.3 37 2.7 38.8 2.8C40.7 3 42.3 4 44.2 4.2C46 4.3 48 3.7 50 3.2C52 2.7 54 2.3 55.8 2.7C57.7 3 59.3 4 61.2 4.3C63 4.7 65 4.3 66.8 4C68.7 3.7 70.3 3.3 72.2 3.3C74 3.3 76 3.7 77.8 4C79.7 4.3 81.3 4.7 83.2 4.8C85 5 87 5 88.8 4.8C90.7 4.7 92.3 4.3 94.2 4.2C96 4 98 4 99 4L100 4L100 11L99 11C98 11 96 11 94.2 11C92.3 11 90.7 11 88.8 11C87 11 85 11 83.2 11C81.3 11 79.7 11 77.8 11C76 11 74 11 72.2 11C70.3 11 68.7 11 66.8 11C65 11 63 11 61.2 11C59.3 11 57.7 11 55.8 11C54 11 52 11 50 11C48 11 46 11 44.2 11C42.3 11 40.7 11 38.8 11C37 11 35 11 33.2 11C31.3 11 29.7 11 27.8 11C26 11 24 11 22.2 11C20.3 11 18.7 11 16.8 11C15 11 13 11 11.2 11C9.3 11 7.7 11 5.8 11C4 11 2 11 1 11L0 11Z" fill="#f2c335"></path><path d="M0 3L1 3.5C2 4 4 5 5.8 5C7.7 5 9.3 4 11.2 3.8C13 3.7 15 4.3 16.8 4.8C18.7 5.3 20.3 5.7 22.2 5.5C24 5.3 26 4.7 27.8 4.5C29.7 4.3 31.3 4.7 33.2 5.2C35 5.7 37 6.3 38.8 6C40.7 5.7 42.3 4.3 44.2 4.2C46 4 48 5 50 5.5C52 6 54 6 55.8 6C57.7 6 59.3 6 61.2 5.8C63 5.7 65 5.3 66.8 5.3C68.7 5.3 70.3 5.7 72.2 5.7C74 5.7 76 5.3 77.8 4.8C79.7 4.3 81.3 3.7 83.2 3.5C85 3.3 87 3.7 88.8 3.8C90.7 4 92.3 4 94.2 4.3C96 4.7 98 5.3 99 5.7L100 6L100 11L99 11C98 11 96 11 94.2 11C92.3 11 90.7 11 88.8 11C87 11 85 11 83.2 11C81.3 11 79.7 11 77.8 11C76 11 74 11 72.2 11C70.3 11 68.7 11 66.8 11C65 11 63 11 61.2 11C59.3 11 57.7 11 55.8 11C54 11 52 11 50 11C48 11 46 11 44.2 11C42.3 11 40.7 11 38.8 11C37 11 35 11 33.2 11C31.3 11 29.7 11 27.8 11C26 11 24 11 22.2 11C20.3 11 18.7 11 16.8 11C15 11 13 11 11.2 11C9.3 11 7.7 11 5.8 11C4 11 2 11 1 11L0 11Z" fill="#f3b527"></path><path d="M0 6L1 6.2C2 6.3 4 6.7 5.8 6.7C7.7 6.7 9.3 6.3 11.2 6.3C13 6.3 15 6.7 16.8 6.5C18.7 6.3 20.3 5.7 22.2 5.3C24 5 26 5 27.8 5.2C29.7 5.3 31.3 5.7 33.2 5.8C35 6 37 6 38.8 5.8C40.7 5.7 42.3 5.3 44.2 5.3C46 5.3 48 5.7 50 5.7C52 5.7 54 5.3 55.8 5.3C57.7 5.3 59.3 5.7 61.2 5.5C63 5.3 65 4.7 66.8 4.5C68.7 4.3 70.3 4.7 72.2 5C74 5.3 76 5.7 77.8 5.8C79.7 6 81.3 6 83.2 5.8C85 5.7 87 5.3 88.8 5.3C90.7 5.3 92.3 5.7 94.2 5.8C96 6 98 6 99 6L100 6L100 11L99 11C98 11 96 11 94.2 11C92.3 11 90.7 11 88.8 11C87 11 85 11 83.2 11C81.3 11 79.7 11 77.8 11C76 11 74 11 72.2 11C70.3 11 68.7 11 66.8 11C65 11 63 11 61.2 11C59.3 11 57.7 11 55.8 11C54 11 52 11 50 11C48 11 46 11 44.2 11C42.3 11 40.7 11 38.8 11C37 11 35 11 33.2 11C31.3 11 29.7 11 27.8 11C26 11 24 11 22.2 11C20.3 11 18.7 11 16.8 11C15 11 13 11 11.2 11C9.3 11 7.7 11 5.8 11C4 11 2 11 1 11L0 11Z" fill="#f3a61a"></path><path d="M0 8L1 7.8C2 7.7 4 7.3 5.8 7C7.7 6.7 9.3 6.3 11.2 6.5C13 6.7 15 7.3 16.8 7.5C18.7 7.7 20.3 7.3 22.2 7C24 6.7 26 6.3 27.8 6.3C29.7 6.3 31.3 6.7 33.2 6.8C35 7 37 7 38.8 7C40.7 7 42.3 7 44.2 6.8C46 6.7 48 6.3 50 6.2C52 6 54 6 55.8 6C57.7 6 59.3 6 61.2 6C63 6 65 6 66.8 6.3C68.7 6.7 70.3 7.3 72.2 7.3C74 7.3 76 6.7 77.8 6.5C79.7 6.3 81.3 6.7 83.2 6.8C85 7 87 7 88.8 6.8C90.7 6.7 92.3 6.3 94.2 6.3C96 6.3 98 6.7 99 6.8L100 7L100 11L99 11C98 11 96 11 94.2 11C92.3 11 90.7 11 88.8 11C87 11 85 11 83.2 11C81.3 11 79.7 11 77.8 11C76 11 74 11 72.2 11C70.3 11 68.7 11 66.8 11C65 11 63 11 61.2 11C59.3 11 57.7 11 55.8 11C54 11 52 11 50 11C48 11 46 11 44.2 11C42.3 11 40.7 11 38.8 11C37 11 35 11 33.2 11C31.3 11 29.7 11 27.8 11C26 11 24 11 22.2 11C20.3 11 18.7 11 16.8 11C15 11 13 11 11.2 11C9.3 11 7.7 11 5.8 11C4 11 2 11 1 11L0 11Z" fill="#f3970e"></path><path d="M0 7L1 7C2 7 4 7 5.8 7.3C7.7 7.7 9.3 8.3 11.2 8.5C13 8.7 15 8.3 16.8 8.2C18.7 8 20.3 8 22.2 7.8C24 7.7 26 7.3 27.8 7.2C29.7 7 31.3 7 33.2 7.2C35 7.3 37 7.7 38.8 7.8C40.7 8 42.3 8 44.2 8C46 8 48 8 50 8C52 8 54 8 55.8 7.8C57.7 7.7 59.3 7.3 61.2 7.3C63 7.3 65 7.7 66.8 7.8C68.7 8 70.3 8 72.2 7.8C74 7.7 76 7.3 77.8 7.2C79.7 7 81.3 7 83.2 7.2C85 7.3 87 7.7 88.8 7.8C90.7 8 92.3 8 94.2 8C96 8 98 8 99 8L100 8L100 11L99 11C98 11 96 11 94.2 11C92.3 11 90.7 11 88.8 11C87 11 85 11 83.2 11C81.3 11 79.7 11 77.8 11C76 11 74 11 72.2 11C70.3 11 68.7 11 66.8 11C65 11 63 11 61.2 11C59.3 11 57.7 11 55.8 11C54 11 52 11 50 11C48 11 46 11 44.2 11C42.3 11 40.7 11 38.8 11C37 11 35 11 33.2 11C31.3 11 29.7 11 27.8 11C26 11 24 11 22.2 11C20.3 11 18.7 11 16.8 11C15 11 13 11 11.2 11C9.3 11 7.7 11 5.8 11C4 11 2 11 1 11L0 11Z" fill="#f28705"></path></svg>